<svg xmlns="http://www.w3.org/2000/svg" width="18" height="18" viewBox="0 0 18 18" fill="none">
  <path d="M8.99917 0.0246582C4.02996 0.0246582 0 4.05406 0 9.02493C0 13.0013 2.57853 16.3743 6.15489 17.5644C6.60518 17.6473 6.76927 17.3694 6.76927 17.1307C6.76927 16.9169 6.76153 16.3511 6.75711 15.6003C4.25372 16.1439 3.72553 14.3936 3.72553 14.3936C3.31612 13.3538 2.72605 13.077 2.72605 13.077C1.9089 12.519 2.78793 12.53 2.78793 12.53C3.69127 12.5936 4.16643 13.4577 4.16643 13.4577C4.96921 14.8328 6.27312 14.4356 6.78584 14.2052C6.86761 13.624 7.10022 13.2273 7.35713 13.0024C5.35873 12.7753 3.25756 12.0029 3.25756 8.5542C3.25756 7.57185 3.6084 6.76796 4.18411 6.13921C4.09129 5.91158 3.78244 4.99608 4.27251 3.75737C4.27251 3.75737 5.02778 3.51537 6.74717 4.68005C7.46487 4.48004 8.23506 4.38059 9.00028 4.37673C9.76494 4.38059 10.5346 4.48004 11.2534 4.68005C12.9717 3.51537 13.7258 3.75737 13.7258 3.75737C14.217 4.99608 13.9082 5.91158 13.8159 6.13921C14.3927 6.76796 14.7408 7.57185 14.7408 8.5542C14.7408 12.0118 12.6363 12.7726 10.6318 12.9952C10.9545 13.2731 11.2423 13.8223 11.2423 14.6616C11.2423 15.8649 11.2313 16.8357 11.2313 17.1307C11.2313 17.3716 11.3937 17.6517 11.8501 17.5639C15.4237 16.371 18 13.0002 18 9.02493C18 4.05406 13.97 0.0246582 8.99917 0.0246582Z" fill="#182359"/>
</svg>