<svg xmlns="http://www.w3.org/2000/svg" width="18" height="18" viewBox="0 0 18 18" fill="none">
  <path d="M18 8.95927C18 8.28021 17.9404 7.62671 17.8296 7H9V10.7055H14.0454C13.8281 11.9029 13.1675 12.9172 12.1748 13.5967V16H15.2046C16.9775 14.3322 18 11.8765 18 8.95927Z" fill="#4285F4"/>
  <path d="M9.04326 18C11.4734 18 13.5107 17.1157 15 15.607L12.0912 13.1291C11.2854 13.7217 10.2541 14.072 9.04326 14.072C6.69893 14.072 4.715 12.3348 4.00716 10H1V12.5591C2.48089 15.787 5.52467 18 9.04326 18Z" fill="#34A853"/>
  <path d="M4 10.6922C3.81837 10.1578 3.71525 9.58685 3.71525 9C3.71525 8.41315 3.81837 7.84215 4 7.30777V5H0.965849C0.350938 6.20238 0 7.56288 0 9C0 10.4371 0.350938 11.7976 0.965849 13L4 10.6922Z" fill="#FBBC05"/>
  <path d="M9.00575 3.92802C10.3211 3.92802 11.502 4.42645 12.4305 5.4049L15 2.57209C13.4482 0.978866 11.4204 0 9.00575 0C5.50394 0 2.47398 2.21343 1 5.44089L3.99314 8C4.69768 5.66562 6.67273 3.92802 9.00575 3.92802Z" fill="#EA4335"/>
</svg>